<svg xmlns="http://www.w3.org/2000/svg" viewBox="0 0 32 32" fill="none">
  <defs>
    <linearGradient id="g" x1="0" y1="0" x2="32" y2="32" gradientUnits="userSpaceOnUse">
      <stop offset="0%" stop-color="#6366f1"/>
      <stop offset="100%" stop-color="#22d3ee"/>
    </linearGradient>
  </defs>
  <rect width="32" height="32" rx="8" fill="url(#g)"/>
  <path d="M9 8h8a2 2 0 012 2v12a2 2 0 01-2 2H9a2 2 0 01-2-2V10a2 2 0 012-2z" fill="white" fill-opacity="0.9"/>
  <path d="M13 8l6 4-6 4V8z" fill="white" fill-opacity="0.6"/>
  <path d="M13 8h7a2 2 0 012 2v2l-6 4-6-4v-2a2 2 0 012-2h1z" fill="white" fill-opacity="0.9"/>
</svg>
